<?xml version="1.0" encoding="UTF-8" standalone="no"?><svg xmlns="http://www.w3.org/2000/svg" xmlns:xlink="http://www.w3.org/1999/xlink" contentScriptType="application/ecmascript" contentStyleType="text/css" height="311px" preserveAspectRatio="none" style="width:367px;height:311px;" version="1.1" viewBox="0 0 367 311" width="367px" zoomAndPan="magnify"><defs><filter height="300%" id="f1cimo7kqn0n2j" width="300%" x="-1" y="-1"><feGaussianBlur result="blurOut" stdDeviation="2.0"/><feColorMatrix in="blurOut" result="blurOut2" type="matrix" values="0 0 0 0 0 0 0 0 0 0 0 0 0 0 0 0 0 0 .4 0"/><feOffset dx="4.0" dy="4.0" in="blurOut2" result="blurOut3"/><feBlend in="SourceGraphic" in2="blurOut3" mode="normal"/></filter></defs><g><line style="stroke: #A80036; stroke-width: 1.0; stroke-dasharray: 5.0,5.0;" x1="28" x2="28" y1="86.4883" y2="223.7305"/><line style="stroke: #A80036; stroke-width: 1.0; stroke-dasharray: 5.0,5.0;" x1="102" x2="102" y1="86.4883" y2="223.7305"/><line style="stroke: #A80036; stroke-width: 1.0; stroke-dasharray: 5.0,5.0;" x1="180" x2="180" y1="86.4883" y2="223.7305"/><line style="stroke: #A80036; stroke-width: 1.0; stroke-dasharray: 5.0,5.0;" x1="235" x2="235" y1="86.4883" y2="223.7305"/><line style="stroke: #A80036; stroke-width: 1.0; stroke-dasharray: 5.0,5.0;" x1="286" x2="286" y1="86.4883" y2="223.7305"/><line style="stroke: #A80036; stroke-width: 1.0; stroke-dasharray: 5.0,5.0;" x1="337" x2="337" y1="86.4883" y2="223.7305"/><text fill="#000000" font-family="sans-serif" font-size="14" lengthAdjust="spacingAndGlyphs" textLength="35" x="8" y="83.5352">Foo1</text><ellipse cx="28.5" cy="13" fill="#FEFECE" filter="url(#f1cimo7kqn0n2j)" rx="8" ry="8" style="stroke: #A80036; stroke-width: 2.0;"/><path d="M28.5,21 L28.5,48 M15.5,29 L41.5,29 M28.5,48 L15.5,63 M28.5,48 L41.5,63 " fill="none" filter="url(#f1cimo7kqn0n2j)" style="stroke: #A80036; stroke-width: 2.0;"/><text fill="#000000" font-family="sans-serif" font-size="14" lengthAdjust="spacingAndGlyphs" textLength="35" x="8" y="236.2656">Foo1</text><ellipse cx="28.5" cy="249.2188" fill="#FEFECE" filter="url(#f1cimo7kqn0n2j)" rx="8" ry="8" style="stroke: #A80036; stroke-width: 2.0;"/><path d="M28.5,257.2188 L28.5,284.2188 M15.5,265.2188 L41.5,265.2188 M28.5,284.2188 L15.5,299.2188 M28.5,284.2188 L41.5,299.2188 " fill="none" filter="url(#f1cimo7kqn0n2j)" style="stroke: #A80036; stroke-width: 2.0;"/><text fill="#000000" font-family="sans-serif" font-size="14" lengthAdjust="spacingAndGlyphs" textLength="81" x="59" y="83.5352">Foo1gfdgdf</text><ellipse cx="102.5" cy="13" fill="#FEFECE" filter="url(#f1cimo7kqn0n2j)" rx="8" ry="8" style="stroke: #A80036; stroke-width: 2.0;"/><path d="M102.5,21 L102.5,48 M89.5,29 L115.5,29 M102.5,48 L89.5,63 M102.5,48 L115.5,63 " fill="none" filter="url(#f1cimo7kqn0n2j)" style="stroke: #A80036; stroke-width: 2.0;"/><text fill="#000000" font-family="sans-serif" font-size="14" lengthAdjust="spacingAndGlyphs" textLength="81" x="59" y="236.2656">Foo1gfdgdf</text><ellipse cx="102.5" cy="249.2188" fill="#FEFECE" filter="url(#f1cimo7kqn0n2j)" rx="8" ry="8" style="stroke: #A80036; stroke-width: 2.0;"/><path d="M102.5,257.2188 L102.5,284.2188 M89.5,265.2188 L115.5,265.2188 M102.5,284.2188 L89.5,299.2188 M102.5,284.2188 L115.5,299.2188 " fill="none" filter="url(#f1cimo7kqn0n2j)" style="stroke: #A80036; stroke-width: 2.0;"/><text fill="#000000" font-family="sans-serif" font-size="14" lengthAdjust="spacingAndGlyphs" textLength="35" x="160" y="83.5352">Foo2</text><path d="M160,42 L160,66 M160,54 L177,54 " fill="none" filter="url(#f1cimo7kqn0n2j)" style="stroke: #A80036; stroke-width: 2.0;"/><ellipse cx="189" cy="54" fill="#FEFECE" filter="url(#f1cimo7kqn0n2j)" rx="12" ry="12" style="stroke: #A80036; stroke-width: 2.0;"/><text fill="#000000" font-family="sans-serif" font-size="14" lengthAdjust="spacingAndGlyphs" textLength="35" x="160" y="236.2656">Foo2</text><path d="M160,243.2188 L160,267.2188 M160,255.2188 L177,255.2188 " fill="none" filter="url(#f1cimo7kqn0n2j)" style="stroke: #A80036; stroke-width: 2.0;"/><ellipse cx="189" cy="255.2188" fill="#FEFECE" filter="url(#f1cimo7kqn0n2j)" rx="12" ry="12" style="stroke: #A80036; stroke-width: 2.0;"/><text fill="#000000" font-family="sans-serif" font-size="14" lengthAdjust="spacingAndGlyphs" textLength="35" x="215" y="83.5352">Foo3</text><ellipse cx="235.5" cy="54" fill="#FEFECE" filter="url(#f1cimo7kqn0n2j)" rx="12" ry="12" style="stroke: #A80036; stroke-width: 2.0;"/><polygon fill="#A80036" points="231.5,42,237.5,37,235.5,42,237.5,47,231.5,42" style="stroke: #A80036; stroke-width: 1.0;"/><text fill="#000000" font-family="sans-serif" font-size="14" lengthAdjust="spacingAndGlyphs" textLength="35" x="215" y="236.2656">Foo3</text><ellipse cx="235.5" cy="255.2188" fill="#FEFECE" filter="url(#f1cimo7kqn0n2j)" rx="12" ry="12" style="stroke: #A80036; stroke-width: 2.0;"/><polygon fill="#A80036" points="231.5,243.2188,237.5,238.2188,235.5,243.2188,237.5,248.2188,231.5,243.2188" style="stroke: #A80036; stroke-width: 1.0;"/><text fill="#000000" font-family="sans-serif" font-size="14" lengthAdjust="spacingAndGlyphs" textLength="35" x="266" y="83.5352">Foo4</text><ellipse cx="286.5" cy="54" fill="#FEFECE" filter="url(#f1cimo7kqn0n2j)" rx="12" ry="12" style="stroke: #A80036; stroke-width: 2.0;"/><line style="stroke: #A80036; stroke-width: 2.0;" x1="274.5" x2="298.5" y1="68" y2="68"/><text fill="#000000" font-family="sans-serif" font-size="14" lengthAdjust="spacingAndGlyphs" textLength="35" x="266" y="236.2656">Foo4</text><ellipse cx="286.5" cy="255.2188" fill="#FEFECE" filter="url(#f1cimo7kqn0n2j)" rx="12" ry="12" style="stroke: #A80036; stroke-width: 2.0;"/><line style="stroke: #A80036; stroke-width: 2.0;" x1="274.5" x2="298.5" y1="269.2188" y2="269.2188"/><text fill="#000000" font-family="sans-serif" font-size="14" lengthAdjust="spacingAndGlyphs" textLength="35" x="317" y="83.5352">Foo5</text><path d="M319.5,34 C319.5,24 337.5,24 337.5,24 C337.5,24 355.5,24 355.5,34 L355.5,60 C355.5,70 337.5,70 337.5,70 C337.5,70 319.5,70 319.5,60 L319.5,34 " fill="#FEFECE" filter="url(#f1cimo7kqn0n2j)" style="stroke: #000000; stroke-width: 1.5;"/><path d="M319.5,34 C319.5,44 337.5,44 337.5,44 C337.5,44 355.5,44 355.5,34 " fill="none" style="stroke: #000000; stroke-width: 1.5;"/><text fill="#000000" font-family="sans-serif" font-size="14" lengthAdjust="spacingAndGlyphs" textLength="35" x="317" y="236.2656">Foo5</text><path d="M319.5,249.2188 C319.5,239.2188 337.5,239.2188 337.5,239.2188 C337.5,239.2188 355.5,239.2188 355.5,249.2188 L355.5,275.2188 C355.5,285.2188 337.5,285.2188 337.5,285.2188 C337.5,285.2188 319.5,285.2188 319.5,275.2188 L319.5,249.2188 " fill="#FEFECE" filter="url(#f1cimo7kqn0n2j)" style="stroke: #000000; stroke-width: 1.5;"/><path d="M319.5,249.2188 C319.5,259.2188 337.5,259.2188 337.5,259.2188 C337.5,259.2188 355.5,259.2188 355.5,249.2188 " fill="none" style="stroke: #000000; stroke-width: 1.5;"/><polygon fill="#A80036" points="168.5,113.7988,178.5,117.7988,168.5,121.7988,172.5,117.7988" style="stroke: #A80036; stroke-width: 1.0;"/><line style="stroke: #A80036; stroke-width: 1.0;" x1="28.5" x2="174.5" y1="117.7988" y2="117.7988"/><text fill="#000000" font-family="sans-serif" font-size="13" lengthAdjust="spacingAndGlyphs" textLength="79" x="35.5" y="113.0566">To boundary</text><polygon fill="#A80036" points="223.5,143.1094,233.5,147.1094,223.5,151.1094,227.5,147.1094" style="stroke: #A80036; stroke-width: 1.0;"/><line style="stroke: #A80036; stroke-width: 1.0;" x1="28.5" x2="229.5" y1="147.1094" y2="147.1094"/><text fill="#000000" font-family="sans-serif" font-size="13" lengthAdjust="spacingAndGlyphs" textLength="65" x="35.5" y="142.3672">To control</text><polygon fill="#A80036" points="274.5,172.4199,284.5,176.4199,274.5,180.4199,278.5,176.4199" style="stroke: #A80036; stroke-width: 1.0;"/><line style="stroke: #A80036; stroke-width: 1.0;" x1="28.5" x2="280.5" y1="176.4199" y2="176.4199"/><text fill="#000000" font-family="sans-serif" font-size="13" lengthAdjust="spacingAndGlyphs" textLength="56" x="35.5" y="171.6777">To entity</text><polygon fill="#A80036" points="325.5,201.7305,335.5,205.7305,325.5,209.7305,329.5,205.7305" style="stroke: #A80036; stroke-width: 1.0;"/><line style="stroke: #A80036; stroke-width: 1.0;" x1="28.5" x2="331.5" y1="205.7305" y2="205.7305"/><text fill="#000000" font-family="sans-serif" font-size="13" lengthAdjust="spacingAndGlyphs" textLength="76" x="35.5" y="200.9883">To database</text><!--
@startuml
actor Foo1
actor Foo1gfdgdf
boundary Foo2
control Foo3
entity Foo4
database Foo5
Foo1 -> Foo2 : To boundary
Foo1 -> Foo3 : To control
Foo1 -> Foo4 : To entity
Foo1 -> Foo5 : To database

@enduml

PlantUML version 1.2018.06(Mon May 21 13:34:53 EEST 2018)
(GPL source distribution)
Java Runtime: Java(TM) SE Runtime Environment
JVM: Java HotSpot(TM) 64-Bit Server VM
Java Version: 1.8.0_172-b11
Operating System: Mac OS X
OS Version: 10.13.5
Default Encoding: UTF-8
Language: en
Country: RO
--></g></svg>